<svg width="46" height="41" viewBox="0 0 46 41" fill="none" xmlns="http://www.w3.org/2000/svg">
<path d="M44.8918 9.82727C43.9091 9.32545 42.8845 8.90727 41.8182 8.55182V33.7055C39.4345 32.8482 36.9882 32.4091 34.5 32.4091C30.5273 32.4091 26.5964 33.5382 23 35.7127V10.4127C19.6127 8.46818 15.7027 7.31818 11.5 7.31818C7.75727 7.31818 4.22364 8.23818 1.10818 9.82727C0.418182 10.1618 0 10.8936 0 11.6673V36.9255C0 38.1382 0.982727 38.9955 2.09091 38.9955C2.42545 38.9955 2.76 38.9118 3.09455 38.7445C5.62455 37.4273 8.46818 36.5909 11.5 36.5909C15.8282 36.5909 19.8218 38.3055 23 40.7727C26.1782 38.3055 30.1718 36.5909 34.5 36.5909C37.5318 36.5909 40.3755 37.4273 42.9055 38.7655C43.24 38.9327 43.5745 39.0164 43.9091 39.0164C44.9964 39.0164 46 38.1591 46 36.9464V11.6673C46 10.8936 45.5818 10.1618 44.8918 9.82727ZM18.8182 33.7055C16.4345 32.8482 13.9882 32.4091 11.5 32.4091C9.01182 32.4091 6.56545 32.8482 4.18182 33.7055V12.9845C6.50273 12.0018 8.94909 11.5 11.5 11.5C14.0091 11.5 16.4973 12.0227 18.8182 13.0055V33.7055ZM37.6364 0L27.1818 10.4545V30.3182L37.6364 20.9091V0Z" fill="#5ABF9F"/>
</svg>
