<svg width="649" height="1553" viewBox="0 0 649 1553" fill="none" xmlns="http://www.w3.org/2000/svg">
<g opacity="0.4">
<path d="M-114.063 897.273C-46.4305 883.437 -2.99288 818.23 -17.0425 751.628C-31.0921 685.026 -97.3086 642.251 -164.941 656.086C-232.574 669.922 -276.012 735.129 -261.962 801.731C-247.912 868.333 -181.696 911.108 -114.063 897.273Z" stroke="url(#paint0_linear_607_7343)" stroke-width="1.3328" stroke-miterlimit="10"/>
<path d="M-236.227 921.886C-154.815 974.478 -45.5245 952.12 7.88103 871.949C61.2866 791.779 38.5832 684.153 -42.8284 631.562C-124.24 578.97 -233.531 601.328 -286.936 681.499C-340.342 761.669 -317.639 869.294 -236.227 921.886Z" stroke="url(#paint1_linear_607_7343)" stroke-width="1.3328" stroke-miterlimit="10"/>
<path d="M-90.3077 1009.89C40.4814 983.13 124.482 857.031 97.3125 728.235C70.1432 599.439 -57.9075 516.719 -188.697 543.474C-319.486 570.23 -403.486 696.329 -376.317 825.124C-349.148 953.92 -221.097 1036.64 -90.3077 1009.89Z" stroke="url(#paint2_linear_607_7343)" stroke-width="1.3328" stroke-miterlimit="10"/>
<path d="M-77.5226 1070.49C87.2578 1036.79 193.089 877.914 158.859 715.645C124.628 553.376 -36.7016 449.157 -201.482 482.866C-366.262 516.575 -472.094 675.446 -437.863 837.715C-403.633 999.984 -242.303 1104.2 -77.5226 1070.49Z" stroke="url(#paint3_linear_607_7343)" stroke-width="1.3328" stroke-miterlimit="10"/>
<path d="M-358.396 1105.28C-174.13 1224.32 73.2382 1173.71 194.116 992.256C314.993 810.799 263.607 567.201 79.3404 448.166C-104.926 329.131 -352.294 379.734 -473.171 561.192C-594.049 742.65 -542.662 986.247 -358.396 1105.28Z" stroke="url(#paint4_linear_607_7343)" stroke-width="1.3328" stroke-miterlimit="10"/>
<path d="M-435.939 1221.69C-186.388 1382.9 148.621 1314.37 312.324 1068.62C476.028 822.871 406.435 492.968 156.885 331.759C-92.6662 170.55 -427.675 239.082 -591.379 484.83C-755.083 730.577 -685.49 1060.48 -435.939 1221.69Z" stroke="url(#paint5_linear_607_7343)" stroke-width="1.3328" stroke-miterlimit="10"/>
<path d="M-500.075 1317.97C-196.528 1514.06 210.967 1430.7 410.092 1131.78C609.216 832.855 524.566 431.57 221.02 235.481C-82.5269 39.3909 -490.022 122.751 -689.147 421.671C-888.272 720.591 -803.621 1121.88 -500.075 1317.97Z" stroke="url(#paint6_linear_607_7343)" stroke-width="1.3328" stroke-miterlimit="10"/>
<path d="M-542.358 1381.44C-203.213 1600.53 252.072 1507.39 474.55 1173.42C697.027 839.439 602.449 391.093 263.303 172.007C-75.842 -47.0798 -531.127 46.0568 -753.605 380.033C-976.082 714.01 -881.504 1162.36 -542.358 1381.44Z" stroke="url(#paint7_linear_607_7343)" stroke-width="1.3328" stroke-miterlimit="10"/>
<path d="M-571.271 1424.61C-207.875 1659.36 279.965 1559.57 518.35 1201.71C756.736 843.854 655.395 363.449 291.999 128.697C-71.3964 -106.055 -559.236 -6.25894 -797.622 351.598C-1036.01 709.455 -934.666 1189.86 -571.271 1424.61Z" stroke="url(#paint8_linear_607_7343)" stroke-width="1.3328" stroke-miterlimit="10"/>
</g>
<defs>
<linearGradient id="paint0_linear_607_7343" x1="565.941" y1="1375.11" x2="-273.76" y2="724.009" gradientUnits="userSpaceOnUse">
<stop stop-color="#F9BDB1" stop-opacity="0.24"/>
<stop offset="1" stop-color="#040327"/>
</linearGradient>
<linearGradient id="paint1_linear_607_7343" x1="565.941" y1="1375.11" x2="-273.76" y2="724.009" gradientUnits="userSpaceOnUse">
<stop stop-color="#F9BDB1" stop-opacity="0.24"/>
<stop offset="1" stop-color="#040327"/>
</linearGradient>
<linearGradient id="paint2_linear_607_7343" x1="565.941" y1="1375.11" x2="-273.76" y2="724.009" gradientUnits="userSpaceOnUse">
<stop stop-color="#F9BDB1" stop-opacity="0.24"/>
<stop offset="1" stop-color="#040327"/>
</linearGradient>
<linearGradient id="paint3_linear_607_7343" x1="565.941" y1="1375.11" x2="-273.76" y2="724.009" gradientUnits="userSpaceOnUse">
<stop stop-color="#F9BDB1" stop-opacity="0.24"/>
<stop offset="1" stop-color="#040327"/>
</linearGradient>
<linearGradient id="paint4_linear_607_7343" x1="565.941" y1="1375.11" x2="-273.76" y2="724.009" gradientUnits="userSpaceOnUse">
<stop stop-color="#F9BDB1" stop-opacity="0.24"/>
<stop offset="1" stop-color="#040327"/>
</linearGradient>
<linearGradient id="paint5_linear_607_7343" x1="565.941" y1="1375.11" x2="-273.76" y2="724.009" gradientUnits="userSpaceOnUse">
<stop stop-color="#F9BDB1" stop-opacity="0.24"/>
<stop offset="1" stop-color="#040327"/>
</linearGradient>
<linearGradient id="paint6_linear_607_7343" x1="565.941" y1="1375.11" x2="-273.76" y2="724.009" gradientUnits="userSpaceOnUse">
<stop stop-color="#F9BDB1" stop-opacity="0.24"/>
<stop offset="1" stop-color="#040327"/>
</linearGradient>
<linearGradient id="paint7_linear_607_7343" x1="565.941" y1="1375.11" x2="-273.76" y2="724.009" gradientUnits="userSpaceOnUse">
<stop stop-color="#F9BDB1" stop-opacity="0.24"/>
<stop offset="1" stop-color="#040327"/>
</linearGradient>
<linearGradient id="paint8_linear_607_7343" x1="565.941" y1="1375.11" x2="-273.76" y2="724.009" gradientUnits="userSpaceOnUse">
<stop stop-color="#F9BDB1" stop-opacity="0.24"/>
<stop offset="1" stop-color="#040327"/>
</linearGradient>
</defs>
</svg>
