<svg width="47" height="33" viewBox="0 0 47 33" fill="none" xmlns="http://www.w3.org/2000/svg">
<path d="M16.3333 20.4167C10.8733 20.4167 0 23.1467 0 28.5833V32.6667H32.6667V28.5833C32.6667 23.1467 21.7933 20.4167 16.3333 20.4167ZM5.46 28C7.42 26.6467 12.1567 25.0833 16.3333 25.0833C20.51 25.0833 25.2467 26.6467 27.2067 28H5.46ZM16.3333 16.3333C20.8367 16.3333 24.5 12.67 24.5 8.16667C24.5 3.66333 20.8367 0 16.3333 0C11.83 0 8.16667 3.66333 8.16667 8.16667C8.16667 12.67 11.83 16.3333 16.3333 16.3333ZM16.3333 4.66667C18.27 4.66667 19.8333 6.23 19.8333 8.16667C19.8333 10.1033 18.27 11.6667 16.3333 11.6667C14.3967 11.6667 12.8333 10.1033 12.8333 8.16667C12.8333 6.23 14.3967 4.66667 16.3333 4.66667ZM32.76 20.5567C35.4667 22.5167 37.3333 25.13 37.3333 28.5833V32.6667H46.6667V28.5833C46.6667 23.87 38.5 21.1867 32.76 20.5567ZM30.3333 16.3333C34.8367 16.3333 38.5 12.67 38.5 8.16667C38.5 3.66333 34.8367 0 30.3333 0C29.0733 0 27.9067 0.303333 26.8333 0.816667C28.3033 2.89333 29.1667 5.43667 29.1667 8.16667C29.1667 10.8967 28.3033 13.44 26.8333 15.5167C27.9067 16.03 29.0733 16.3333 30.3333 16.3333Z" fill="#5ABF9F"/>
</svg>
